<mxfile host="65bd71144e">
    <diagram id="FN7CHeMMkafjizUn6fDp" name="ultimate_version">
        <mxGraphModel dx="842" dy="963" grid="1" gridSize="10" guides="1" tooltips="1" connect="1" arrows="1" fold="1" page="0" pageScale="1" pageWidth="850" pageHeight="1100" math="0" shadow="0">
            <root>
                <mxCell id="0"/>
                <mxCell id="1" parent="0"/>
                <mxCell id="4Z--xoqj-RWcQIgM1ucH-113" style="edgeStyle=none;html=1;entryX=0.5;entryY=0;entryDx=0;entryDy=0;exitX=0.5;exitY=1;exitDx=0;exitDy=0;" parent="1" source="4Z--xoqj-RWcQIgM1ucH-115" target="4Z--xoqj-RWcQIgM1ucH-131" edge="1">
                    <mxGeometry relative="1" as="geometry"/>
                </mxCell>
                <mxCell id="4Z--xoqj-RWcQIgM1ucH-114" style="edgeStyle=none;html=1;entryX=0;entryY=0.5;entryDx=0;entryDy=0;exitX=1;exitY=0.5;exitDx=0;exitDy=0;" parent="1" source="4Z--xoqj-RWcQIgM1ucH-115" target="4Z--xoqj-RWcQIgM1ucH-132" edge="1">
                    <mxGeometry relative="1" as="geometry"/>
                </mxCell>
                <mxCell id="4Z--xoqj-RWcQIgM1ucH-148" style="edgeStyle=none;html=1;entryX=1;entryY=0.5;entryDx=0;entryDy=0;" parent="1" source="4Z--xoqj-RWcQIgM1ucH-115" target="4Z--xoqj-RWcQIgM1ucH-120" edge="1">
                    <mxGeometry relative="1" as="geometry"/>
                </mxCell>
                <mxCell id="4Z--xoqj-RWcQIgM1ucH-149" style="edgeStyle=none;html=1;entryX=0.5;entryY=0;entryDx=0;entryDy=0;" parent="1" source="4Z--xoqj-RWcQIgM1ucH-115" target="4Z--xoqj-RWcQIgM1ucH-116" edge="1">
                    <mxGeometry relative="1" as="geometry"/>
                </mxCell>
                <mxCell id="4Z--xoqj-RWcQIgM1ucH-115" value="Game" style="whiteSpace=wrap;html=1;" parent="1" vertex="1">
                    <mxGeometry x="690" y="130" width="120" height="60" as="geometry"/>
                </mxCell>
                <mxCell id="4Z--xoqj-RWcQIgM1ucH-116" value="CollisionService&lt;br&gt;&lt;ul&gt;&lt;li&gt;Obstacle&lt;/li&gt;&lt;li&gt;Interaction&lt;/li&gt;&lt;/ul&gt;" style="whiteSpace=wrap;html=1;align=center;" parent="1" vertex="1">
                    <mxGeometry x="560" y="240" width="120" height="100" as="geometry"/>
                </mxCell>
                <mxCell id="4Z--xoqj-RWcQIgM1ucH-120" value="SoundService" style="whiteSpace=wrap;html=1;" parent="1" vertex="1">
                    <mxGeometry x="440" y="140" width="120" height="60" as="geometry"/>
                </mxCell>
                <mxCell id="4Z--xoqj-RWcQIgM1ucH-122" style="edgeStyle=none;html=1;entryX=0.5;entryY=0;entryDx=0;entryDy=0;exitX=0.5;exitY=1;exitDx=0;exitDy=0;" parent="1" source="4Z--xoqj-RWcQIgM1ucH-140" target="4Z--xoqj-RWcQIgM1ucH-136" edge="1">
                    <mxGeometry relative="1" as="geometry"/>
                </mxCell>
                <mxCell id="4Z--xoqj-RWcQIgM1ucH-123" style="edgeStyle=none;html=1;entryX=0.5;entryY=0;entryDx=0;entryDy=0;exitX=0.5;exitY=1;exitDx=0;exitDy=0;" parent="1" source="4Z--xoqj-RWcQIgM1ucH-126" target="4Z--xoqj-RWcQIgM1ucH-144" edge="1">
                    <mxGeometry relative="1" as="geometry"/>
                </mxCell>
                <mxCell id="4Z--xoqj-RWcQIgM1ucH-124" style="edgeStyle=none;html=1;entryX=0.5;entryY=0;entryDx=0;entryDy=0;exitX=0.5;exitY=1;exitDx=0;exitDy=0;" parent="1" source="4Z--xoqj-RWcQIgM1ucH-126" target="4Z--xoqj-RWcQIgM1ucH-145" edge="1">
                    <mxGeometry relative="1" as="geometry"/>
                </mxCell>
                <mxCell id="4Z--xoqj-RWcQIgM1ucH-125" style="edgeStyle=none;html=1;entryX=0.5;entryY=0;entryDx=0;entryDy=0;exitX=0.5;exitY=1;exitDx=0;exitDy=0;" parent="1" source="4Z--xoqj-RWcQIgM1ucH-126" target="4Z--xoqj-RWcQIgM1ucH-146" edge="1">
                    <mxGeometry relative="1" as="geometry"/>
                </mxCell>
                <mxCell id="4Z--xoqj-RWcQIgM1ucH-126" value="GameState" style="whiteSpace=wrap;html=1;" parent="1" vertex="1">
                    <mxGeometry x="690" y="-90" width="120" height="60" as="geometry"/>
                </mxCell>
                <mxCell id="4Z--xoqj-RWcQIgM1ucH-127" style="edgeStyle=none;html=1;entryX=0.5;entryY=0;entryDx=0;entryDy=0;exitX=0.5;exitY=1;exitDx=0;exitDy=0;" parent="1" source="4Z--xoqj-RWcQIgM1ucH-128" target="4Z--xoqj-RWcQIgM1ucH-126" edge="1">
                    <mxGeometry relative="1" as="geometry"/>
                </mxCell>
                <mxCell id="4Z--xoqj-RWcQIgM1ucH-128" value="InputService" style="whiteSpace=wrap;html=1;" parent="1" vertex="1">
                    <mxGeometry x="690" y="-200" width="120" height="60" as="geometry"/>
                </mxCell>
                <mxCell id="4Z--xoqj-RWcQIgM1ucH-129" style="edgeStyle=none;html=1;entryX=0.5;entryY=0;entryDx=0;entryDy=0;exitX=0.5;exitY=1;exitDx=0;exitDy=0;" parent="1" source="4Z--xoqj-RWcQIgM1ucH-131" target="4Z--xoqj-RWcQIgM1ucH-140" edge="1">
                    <mxGeometry relative="1" as="geometry"/>
                </mxCell>
                <mxCell id="4Z--xoqj-RWcQIgM1ucH-131" value="Player" style="whiteSpace=wrap;html=1;" parent="1" vertex="1">
                    <mxGeometry x="810" y="320" width="120" height="60" as="geometry"/>
                </mxCell>
                <mxCell id="4Z--xoqj-RWcQIgM1ucH-132" value="Map" style="whiteSpace=wrap;html=1;" parent="1" vertex="1">
                    <mxGeometry x="870" y="130" width="120" height="60" as="geometry"/>
                </mxCell>
                <mxCell id="4Z--xoqj-RWcQIgM1ucH-133" value="NPC" style="whiteSpace=wrap;html=1;" parent="1" vertex="1">
                    <mxGeometry x="1210" y="140" width="120" height="60" as="geometry"/>
                </mxCell>
                <mxCell id="4Z--xoqj-RWcQIgM1ucH-134" value="DialogManager" style="whiteSpace=wrap;html=1;" parent="1" vertex="1">
                    <mxGeometry x="1210" y="340" width="120" height="60" as="geometry"/>
                </mxCell>
                <mxCell id="4Z--xoqj-RWcQIgM1ucH-135" style="edgeStyle=none;html=1;entryX=0.5;entryY=0;entryDx=0;entryDy=0;" parent="1" target="4Z--xoqj-RWcQIgM1ucH-137" edge="1">
                    <mxGeometry relative="1" as="geometry">
                        <mxPoint x="569.9999999999995" y="810" as="sourcePoint"/>
                    </mxGeometry>
                </mxCell>
                <mxCell id="4Z--xoqj-RWcQIgM1ucH-136" value="RenderGame" style="whiteSpace=wrap;html=1;" parent="1" vertex="1">
                    <mxGeometry x="510" y="750" width="120" height="60" as="geometry"/>
                </mxCell>
                <mxCell id="4Z--xoqj-RWcQIgM1ucH-137" value="AnimationSequence" style="whiteSpace=wrap;html=1;" parent="1" vertex="1">
                    <mxGeometry x="510" y="890" width="120" height="60" as="geometry"/>
                </mxCell>
                <mxCell id="4Z--xoqj-RWcQIgM1ucH-138" style="edgeStyle=none;html=1;entryX=0.5;entryY=0;entryDx=0;entryDy=0;exitX=0.5;exitY=1;exitDx=0;exitDy=0;" parent="1" source="4Z--xoqj-RWcQIgM1ucH-145" target="4Z--xoqj-RWcQIgM1ucH-115" edge="1">
                    <mxGeometry relative="1" as="geometry"/>
                </mxCell>
                <mxCell id="4Z--xoqj-RWcQIgM1ucH-143" value="" style="group" parent="1" vertex="1" connectable="0">
                    <mxGeometry x="550" y="20" width="400" height="60" as="geometry"/>
                </mxCell>
                <mxCell id="4Z--xoqj-RWcQIgM1ucH-144" value="MenuState" style="whiteSpace=wrap;html=1;" parent="4Z--xoqj-RWcQIgM1ucH-143" vertex="1">
                    <mxGeometry width="120" height="60" as="geometry"/>
                </mxCell>
                <mxCell id="4Z--xoqj-RWcQIgM1ucH-145" value="PlayingState" style="whiteSpace=wrap;html=1;" parent="4Z--xoqj-RWcQIgM1ucH-143" vertex="1">
                    <mxGeometry x="140" width="120" height="60" as="geometry"/>
                </mxCell>
                <mxCell id="4Z--xoqj-RWcQIgM1ucH-146" value="PausedState" style="whiteSpace=wrap;html=1;" parent="4Z--xoqj-RWcQIgM1ucH-143" vertex="1">
                    <mxGeometry x="280" width="120" height="60" as="geometry"/>
                </mxCell>
                <mxCell id="4Z--xoqj-RWcQIgM1ucH-140" value="Invenctory" style="whiteSpace=wrap;html=1;movable=1;resizable=1;rotatable=1;deletable=1;editable=1;connectable=1;" parent="1" vertex="1">
                    <mxGeometry x="810" y="480" width="120" height="60" as="geometry"/>
                </mxCell>
                <mxCell id="4Z--xoqj-RWcQIgM1ucH-141" value="Item" style="whiteSpace=wrap;html=1;movable=1;resizable=1;rotatable=1;deletable=1;editable=1;connectable=1;" parent="1" vertex="1">
                    <mxGeometry x="950" y="380" width="120" height="60" as="geometry"/>
                </mxCell>
                <mxCell id="4Z--xoqj-RWcQIgM1ucH-142" style="edgeStyle=none;html=1;entryX=0.5;entryY=0;entryDx=0;entryDy=0;exitX=0.5;exitY=1;exitDx=0;exitDy=0;movable=1;resizable=1;rotatable=1;deletable=1;editable=1;connectable=1;" parent="1" source="4Z--xoqj-RWcQIgM1ucH-141" target="4Z--xoqj-RWcQIgM1ucH-140" edge="1">
                    <mxGeometry relative="1" as="geometry"/>
                </mxCell>
            </root>
        </mxGraphModel>
    </diagram>
    <diagram id="8LR64weYPUb_CqyrwxZa" name="geral">
        <mxGraphModel dx="2917" dy="946" grid="1" gridSize="10" guides="1" tooltips="1" connect="1" arrows="1" fold="1" page="1" pageScale="1" pageWidth="850" pageHeight="1100" math="0" shadow="0">
            <root>
                <mxCell id="0"/>
                <mxCell id="1" parent="0"/>
                <mxCell id="2" style="edgeStyle=none;html=1;entryX=0.5;entryY=0;entryDx=0;entryDy=0;" parent="1" source="3" target="7" edge="1">
                    <mxGeometry relative="1" as="geometry">
                        <Array as="points"/>
                    </mxGeometry>
                </mxCell>
                <mxCell id="3" value="KeyboardListnner" style="whiteSpace=wrap;html=1;" parent="1" vertex="1">
                    <mxGeometry x="510" y="60" width="120" height="60" as="geometry"/>
                </mxCell>
                <mxCell id="4" style="edgeStyle=none;html=1;entryX=0.5;entryY=0;entryDx=0;entryDy=0;" parent="1" source="7" target="12" edge="1">
                    <mxGeometry relative="1" as="geometry">
                        <mxPoint x="680" y="180" as="targetPoint"/>
                        <Array as="points">
                            <mxPoint x="570" y="240"/>
                        </Array>
                    </mxGeometry>
                </mxCell>
                <mxCell id="6" style="edgeStyle=none;html=1;entryX=0;entryY=0.5;entryDx=0;entryDy=0;exitX=1;exitY=0.5;exitDx=0;exitDy=0;" parent="1" source="7" target="17" edge="1">
                    <mxGeometry relative="1" as="geometry"/>
                </mxCell>
                <mxCell id="lIg6WMgvQdVMp1hdeZGJ-56" style="edgeStyle=none;html=1;entryX=1;entryY=0.5;entryDx=0;entryDy=0;" parent="1" source="7" target="lIg6WMgvQdVMp1hdeZGJ-55" edge="1">
                    <mxGeometry relative="1" as="geometry"/>
                </mxCell>
                <mxCell id="lIg6WMgvQdVMp1hdeZGJ-97" style="edgeStyle=none;html=1;entryX=0;entryY=0.5;entryDx=0;entryDy=0;exitX=1;exitY=0.5;exitDx=0;exitDy=0;" parent="1" source="7" target="lIg6WMgvQdVMp1hdeZGJ-96" edge="1">
                    <mxGeometry relative="1" as="geometry">
                        <Array as="points">
                            <mxPoint x="680" y="190"/>
                            <mxPoint x="680" y="270"/>
                        </Array>
                    </mxGeometry>
                </mxCell>
                <mxCell id="7" value="Game" style="whiteSpace=wrap;html=1;" parent="1" vertex="1">
                    <mxGeometry x="510" y="160" width="120" height="60" as="geometry"/>
                </mxCell>
                <mxCell id="8" style="edgeStyle=none;html=1;entryX=0.5;entryY=0;entryDx=0;entryDy=0;exitX=0.5;exitY=1;exitDx=0;exitDy=0;" parent="1" source="12" target="18" edge="1">
                    <mxGeometry relative="1" as="geometry"/>
                </mxCell>
                <mxCell id="9" style="edgeStyle=none;html=1;entryX=0.5;entryY=0;entryDx=0;entryDy=0;exitX=0.5;exitY=1;exitDx=0;exitDy=0;" parent="1" source="12" target="19" edge="1">
                    <mxGeometry relative="1" as="geometry"/>
                </mxCell>
                <mxCell id="10" style="edgeStyle=none;html=1;entryX=0.5;entryY=0;entryDx=0;entryDy=0;exitX=0.5;exitY=1;exitDx=0;exitDy=0;" parent="1" source="12" target="20" edge="1">
                    <mxGeometry relative="1" as="geometry"/>
                </mxCell>
                <mxCell id="11" style="edgeStyle=none;html=1;entryX=0.5;entryY=0;entryDx=0;entryDy=0;exitX=0.5;exitY=1;exitDx=0;exitDy=0;" parent="1" source="12" target="21" edge="1">
                    <mxGeometry relative="1" as="geometry">
                        <mxPoint x="575" y="340" as="targetPoint"/>
                    </mxGeometry>
                </mxCell>
                <mxCell id="12" value="Render" style="whiteSpace=wrap;html=1;" parent="1" vertex="1">
                    <mxGeometry x="510" y="260" width="120" height="60" as="geometry"/>
                </mxCell>
                <mxCell id="13" style="edgeStyle=none;html=1;exitX=0.5;exitY=1;exitDx=0;exitDy=0;entryX=0.5;entryY=0;entryDx=0;entryDy=0;" parent="1" source="15" target="16" edge="1">
                    <mxGeometry relative="1" as="geometry"/>
                </mxCell>
                <mxCell id="14" style="edgeStyle=none;html=1;exitX=0.5;exitY=1;exitDx=0;exitDy=0;entryX=0.5;entryY=0;entryDx=0;entryDy=0;" parent="1" source="15" target="22" edge="1">
                    <mxGeometry relative="1" as="geometry"/>
                </mxCell>
                <mxCell id="15" value="CheckCollision" style="whiteSpace=wrap;html=1;" parent="1" vertex="1">
                    <mxGeometry x="100" y="160" width="120" height="60" as="geometry"/>
                </mxCell>
                <mxCell id="lIg6WMgvQdVMp1hdeZGJ-58" style="edgeStyle=none;html=1;entryX=0;entryY=0.5;entryDx=0;entryDy=0;exitX=0.5;exitY=1;exitDx=0;exitDy=0;" parent="1" source="16" target="7" edge="1">
                    <mxGeometry relative="1" as="geometry">
                        <Array as="points">
                            <mxPoint x="85" y="330"/>
                            <mxPoint x="485" y="330"/>
                            <mxPoint x="485" y="190"/>
                        </Array>
                    </mxGeometry>
                </mxCell>
                <mxCell id="16" value="Interaction" style="whiteSpace=wrap;html=1;" parent="1" vertex="1">
                    <mxGeometry x="25" y="240" width="120" height="60" as="geometry"/>
                </mxCell>
                <mxCell id="17" value="Sound" style="whiteSpace=wrap;html=1;" parent="1" vertex="1">
                    <mxGeometry x="705" y="160" width="120" height="60" as="geometry"/>
                </mxCell>
                <mxCell id="18" value="Player" style="whiteSpace=wrap;html=1;" parent="1" vertex="1">
                    <mxGeometry x="315" y="400" width="120" height="60" as="geometry"/>
                </mxCell>
                <mxCell id="19" value="Dialog" style="whiteSpace=wrap;html=1;" parent="1" vertex="1">
                    <mxGeometry x="575" y="400" width="120" height="60" as="geometry"/>
                </mxCell>
                <mxCell id="20" value="Map" style="whiteSpace=wrap;html=1;" parent="1" vertex="1">
                    <mxGeometry x="445" y="400" width="120" height="60" as="geometry"/>
                </mxCell>
                <mxCell id="21" value="Inventory" style="whiteSpace=wrap;html=1;" parent="1" vertex="1">
                    <mxGeometry x="705" y="400" width="120" height="60" as="geometry"/>
                </mxCell>
                <mxCell id="lIg6WMgvQdVMp1hdeZGJ-59" style="edgeStyle=none;html=1;" parent="1" source="22" edge="1">
                    <mxGeometry relative="1" as="geometry">
                        <mxPoint x="505" y="190" as="targetPoint"/>
                        <Array as="points">
                            <mxPoint x="225" y="320"/>
                            <mxPoint x="475" y="320"/>
                            <mxPoint x="475" y="190"/>
                        </Array>
                    </mxGeometry>
                </mxCell>
                <mxCell id="22" value="Obstacle" style="whiteSpace=wrap;html=1;" parent="1" vertex="1">
                    <mxGeometry x="165" y="240" width="120" height="60" as="geometry"/>
                </mxCell>
                <mxCell id="lIg6WMgvQdVMp1hdeZGJ-57" style="edgeStyle=none;html=1;entryX=1;entryY=0.5;entryDx=0;entryDy=0;" parent="1" source="lIg6WMgvQdVMp1hdeZGJ-55" target="15" edge="1">
                    <mxGeometry relative="1" as="geometry"/>
                </mxCell>
                <mxCell id="lIg6WMgvQdVMp1hdeZGJ-55" value="Player" style="whiteSpace=wrap;html=1;" parent="1" vertex="1">
                    <mxGeometry x="305" y="160" width="120" height="60" as="geometry"/>
                </mxCell>
                <mxCell id="lIg6WMgvQdVMp1hdeZGJ-96" value="NPC" style="whiteSpace=wrap;html=1;" parent="1" vertex="1">
                    <mxGeometry x="705" y="240" width="120" height="60" as="geometry"/>
                </mxCell>
            </root>
        </mxGraphModel>
    </diagram>
    <diagram id="0OkF7zyyvWQIv_wF1lvs" name="Description">
        <mxGraphModel dx="2553" dy="828" grid="1" gridSize="10" guides="1" tooltips="1" connect="1" arrows="1" fold="1" page="1" pageScale="1" pageWidth="850" pageHeight="1100" math="0" shadow="0">
            <root>
                <mxCell id="0"/>
                <mxCell id="1" parent="0"/>
                <mxCell id="gucfgo-sMUrkgnukIVOp-1" style="edgeStyle=none;html=1;" parent="1" source="gucfgo-sMUrkgnukIVOp-2" target="gucfgo-sMUrkgnukIVOp-5" edge="1">
                    <mxGeometry relative="1" as="geometry"/>
                </mxCell>
                <mxCell id="gucfgo-sMUrkgnukIVOp-2" value="InputService" style="swimlane;startSize=20;horizontal=1;containerType=tree;" parent="1" vertex="1">
                    <mxGeometry x="420" y="80" width="220" height="80" as="geometry"/>
                </mxCell>
                <mxCell id="gucfgo-sMUrkgnukIVOp-3" value="&lt;ul&gt;&lt;li&gt;Keyboard&lt;/li&gt;&lt;/ul&gt;" style="text;strokeColor=none;fillColor=none;html=1;whiteSpace=wrap;verticalAlign=middle;overflow=hidden;" parent="gucfgo-sMUrkgnukIVOp-2" vertex="1">
                    <mxGeometry x="1.25" y="20" width="210" height="60" as="geometry"/>
                </mxCell>
                <mxCell id="gucfgo-sMUrkgnukIVOp-4" style="edgeStyle=none;html=1;entryX=0.5;entryY=0;entryDx=0;entryDy=0;" parent="1" source="gucfgo-sMUrkgnukIVOp-5" target="gucfgo-sMUrkgnukIVOp-9" edge="1">
                    <mxGeometry relative="1" as="geometry"/>
                </mxCell>
                <mxCell id="gucfgo-sMUrkgnukIVOp-5" value="GameState" style="swimlane;startSize=20;horizontal=1;containerType=tree;" parent="1" vertex="1">
                    <mxGeometry x="421.25" y="200" width="220" height="130" as="geometry"/>
                </mxCell>
                <mxCell id="gucfgo-sMUrkgnukIVOp-6" value="&lt;ul&gt;&lt;li&gt;Menu&lt;/li&gt;&lt;li&gt;Game&lt;/li&gt;&lt;ul&gt;&lt;li&gt;play&lt;/li&gt;&lt;li&gt;pause&lt;/li&gt;&lt;/ul&gt;&lt;/ul&gt;" style="text;strokeColor=none;fillColor=none;html=1;whiteSpace=wrap;verticalAlign=middle;overflow=hidden;" parent="gucfgo-sMUrkgnukIVOp-5" vertex="1">
                    <mxGeometry x="1.25" y="20" width="218.75" height="110" as="geometry"/>
                </mxCell>
                <mxCell id="gucfgo-sMUrkgnukIVOp-7" value="Menu" style="swimlane;startSize=20;horizontal=1;containerType=tree;" parent="1" vertex="1">
                    <mxGeometry x="100" y="235" width="218.5" height="80" as="geometry"/>
                </mxCell>
                <mxCell id="gucfgo-sMUrkgnukIVOp-8" value="&lt;ul&gt;&lt;li&gt;configs&lt;/li&gt;&lt;li&gt;TODO: completar&lt;/li&gt;&lt;/ul&gt;" style="text;strokeColor=none;fillColor=none;html=1;whiteSpace=wrap;verticalAlign=middle;overflow=hidden;" parent="gucfgo-sMUrkgnukIVOp-7" vertex="1">
                    <mxGeometry x="1.25" y="20" width="210" height="60" as="geometry"/>
                </mxCell>
                <mxCell id="gucfgo-sMUrkgnukIVOp-9" value="Game" style="swimlane;startSize=20;horizontal=1;containerType=tree;" parent="1" vertex="1">
                    <mxGeometry x="421.25" y="400" width="220" height="250" as="geometry"/>
                </mxCell>
                <mxCell id="gucfgo-sMUrkgnukIVOp-10" value="&lt;ul&gt;&lt;li&gt;newGame&lt;/li&gt;&lt;li&gt;Maps&lt;/li&gt;&lt;li&gt;camera&lt;/li&gt;&lt;li&gt;&lt;br&gt;&lt;/li&gt;&lt;/ul&gt;" style="text;strokeColor=none;fillColor=none;html=1;whiteSpace=wrap;verticalAlign=middle;overflow=hidden;" parent="gucfgo-sMUrkgnukIVOp-9" vertex="1">
                    <mxGeometry x="1.25" y="20" width="218.75" height="230" as="geometry"/>
                </mxCell>
                <mxCell id="gucfgo-sMUrkgnukIVOp-11" value="Sound" style="whiteSpace=wrap;html=1;" parent="1" vertex="1">
                    <mxGeometry x="190" y="415" width="120" height="60" as="geometry"/>
                </mxCell>
                <mxCell id="gucfgo-sMUrkgnukIVOp-12" style="edgeStyle=none;html=1;entryX=0.5;entryY=0;entryDx=0;entryDy=0;exitX=0.5;exitY=1;exitDx=0;exitDy=0;" parent="1" source="gucfgo-sMUrkgnukIVOp-19" target="gucfgo-sMUrkgnukIVOp-21" edge="1">
                    <mxGeometry relative="1" as="geometry"/>
                </mxCell>
                <mxCell id="gucfgo-sMUrkgnukIVOp-13" style="edgeStyle=none;html=1;entryX=0.5;entryY=0;entryDx=0;entryDy=0;exitX=0.5;exitY=1;exitDx=0;exitDy=0;" parent="1" source="gucfgo-sMUrkgnukIVOp-19" target="gucfgo-sMUrkgnukIVOp-24" edge="1">
                    <mxGeometry relative="1" as="geometry"/>
                </mxCell>
                <mxCell id="gucfgo-sMUrkgnukIVOp-14" style="edgeStyle=none;html=1;entryX=0.5;entryY=0;entryDx=0;entryDy=0;exitX=0.5;exitY=1;exitDx=0;exitDy=0;" parent="1" source="gucfgo-sMUrkgnukIVOp-19" target="gucfgo-sMUrkgnukIVOp-22" edge="1">
                    <mxGeometry relative="1" as="geometry"/>
                </mxCell>
                <mxCell id="gucfgo-sMUrkgnukIVOp-15" style="edgeStyle=none;html=1;entryX=0.5;entryY=0;entryDx=0;entryDy=0;exitX=0.5;exitY=1;exitDx=0;exitDy=0;" parent="1" source="gucfgo-sMUrkgnukIVOp-19" target="gucfgo-sMUrkgnukIVOp-25" edge="1">
                    <mxGeometry relative="1" as="geometry"/>
                </mxCell>
                <mxCell id="gucfgo-sMUrkgnukIVOp-16" style="edgeStyle=none;html=1;entryX=0.5;entryY=0;entryDx=0;entryDy=0;exitX=0.5;exitY=1;exitDx=0;exitDy=0;" parent="1" source="gucfgo-sMUrkgnukIVOp-19" target="gucfgo-sMUrkgnukIVOp-42" edge="1">
                    <mxGeometry relative="1" as="geometry"/>
                </mxCell>
                <mxCell id="gucfgo-sMUrkgnukIVOp-17" style="edgeStyle=none;html=1;entryX=0.5;entryY=0;entryDx=0;entryDy=0;exitX=0.5;exitY=1;exitDx=0;exitDy=0;" parent="1" source="gucfgo-sMUrkgnukIVOp-19" target="gucfgo-sMUrkgnukIVOp-41" edge="1">
                    <mxGeometry relative="1" as="geometry"/>
                </mxCell>
                <mxCell id="gucfgo-sMUrkgnukIVOp-18" style="edgeStyle=none;html=1;entryX=0.5;entryY=0;entryDx=0;entryDy=0;exitX=0.5;exitY=1;exitDx=0;exitDy=0;" parent="1" source="gucfgo-sMUrkgnukIVOp-19" target="gucfgo-sMUrkgnukIVOp-43" edge="1">
                    <mxGeometry relative="1" as="geometry"/>
                </mxCell>
                <mxCell id="gucfgo-sMUrkgnukIVOp-19" value="Render" style="whiteSpace=wrap;html=1;" parent="1" vertex="1">
                    <mxGeometry x="400" y="1170" width="120" height="60" as="geometry"/>
                </mxCell>
                <mxCell id="gucfgo-sMUrkgnukIVOp-20" style="edgeStyle=none;html=1;entryX=0.5;entryY=0;entryDx=0;entryDy=0;exitX=0.5;exitY=1;exitDx=0;exitDy=0;" parent="1" source="gucfgo-sMUrkgnukIVOp-8" target="gucfgo-sMUrkgnukIVOp-19" edge="1">
                    <mxGeometry relative="1" as="geometry">
                        <Array as="points">
                            <mxPoint x="206" y="340"/>
                            <mxPoint x="60" y="340"/>
                            <mxPoint x="60" y="1120"/>
                            <mxPoint x="460" y="1120"/>
                        </Array>
                    </mxGeometry>
                </mxCell>
                <mxCell id="gucfgo-sMUrkgnukIVOp-21" value="Player" style="whiteSpace=wrap;html=1;" parent="1" vertex="1">
                    <mxGeometry x="10" y="1320" width="120" height="60" as="geometry"/>
                </mxCell>
                <mxCell id="gucfgo-sMUrkgnukIVOp-22" value="Dialog" style="whiteSpace=wrap;html=1;" parent="1" vertex="1">
                    <mxGeometry x="270" y="1320" width="120" height="60" as="geometry"/>
                </mxCell>
                <mxCell id="gucfgo-sMUrkgnukIVOp-23" style="edgeStyle=none;html=1;entryX=0.5;entryY=0;entryDx=0;entryDy=0;exitX=0.5;exitY=1;exitDx=0;exitDy=0;" parent="1" source="gucfgo-sMUrkgnukIVOp-24" target="gucfgo-sMUrkgnukIVOp-44" edge="1">
                    <mxGeometry relative="1" as="geometry">
                        <Array as="points">
                            <mxPoint x="200" y="1440"/>
                            <mxPoint x="460" y="1440"/>
                        </Array>
                    </mxGeometry>
                </mxCell>
                <mxCell id="gucfgo-sMUrkgnukIVOp-24" value="Map" style="whiteSpace=wrap;html=1;" parent="1" vertex="1">
                    <mxGeometry x="140" y="1320" width="120" height="60" as="geometry"/>
                </mxCell>
                <mxCell id="gucfgo-sMUrkgnukIVOp-25" value="Inventory" style="whiteSpace=wrap;html=1;" parent="1" vertex="1">
                    <mxGeometry x="400" y="1320" width="120" height="60" as="geometry"/>
                </mxCell>
                <mxCell id="gucfgo-sMUrkgnukIVOp-26" style="edgeStyle=none;html=1;entryX=1;entryY=0.5;entryDx=0;entryDy=0;" parent="1" source="gucfgo-sMUrkgnukIVOp-6" target="gucfgo-sMUrkgnukIVOp-7" edge="1">
                    <mxGeometry relative="1" as="geometry"/>
                </mxCell>
                <mxCell id="gucfgo-sMUrkgnukIVOp-27" value="Player" style="swimlane;startSize=20;horizontal=1;containerType=tree;" parent="1" vertex="1">
                    <mxGeometry x="630" y="710" width="220" height="240" as="geometry"/>
                </mxCell>
                <mxCell id="gucfgo-sMUrkgnukIVOp-28" value="&lt;ul&gt;&lt;li&gt;Interaction&lt;/li&gt;&lt;li&gt;handle_movement&lt;/li&gt;&lt;li&gt;get_skills&lt;/li&gt;&lt;li&gt;get_skills_decription&lt;/li&gt;&lt;li&gt;set_skills&lt;/li&gt;&lt;li&gt;roll_skill_scheck&lt;/li&gt;&lt;li&gt;reduce_attribute&lt;/li&gt;&lt;li&gt;raise_experience&lt;/li&gt;&lt;li&gt;draw&lt;/li&gt;&lt;/ul&gt;" style="text;strokeColor=none;fillColor=none;html=1;whiteSpace=wrap;verticalAlign=middle;overflow=hidden;" parent="gucfgo-sMUrkgnukIVOp-27" vertex="1">
                    <mxGeometry x="1.25" y="20" width="218.75" height="220" as="geometry"/>
                </mxCell>
                <mxCell id="gucfgo-sMUrkgnukIVOp-29" value="CheckColiision" style="swimlane;startSize=20;horizontal=1;containerType=tree;" parent="1" vertex="1">
                    <mxGeometry x="160" y="820" width="220" height="90" as="geometry"/>
                </mxCell>
                <mxCell id="gucfgo-sMUrkgnukIVOp-30" value="&lt;ul&gt;&lt;li&gt;Interaction&lt;/li&gt;&lt;li&gt;Obstacle&lt;/li&gt;&lt;/ul&gt;" style="text;strokeColor=none;fillColor=none;html=1;whiteSpace=wrap;verticalAlign=middle;overflow=hidden;" parent="gucfgo-sMUrkgnukIVOp-29" vertex="1">
                    <mxGeometry x="1.25" y="20" width="218.75" height="70" as="geometry"/>
                </mxCell>
                <mxCell id="gucfgo-sMUrkgnukIVOp-33" style="edgeStyle=none;html=1;entryX=1;entryY=0.5;entryDx=0;entryDy=0;exitX=0;exitY=0.5;exitDx=0;exitDy=0;" parent="1" source="gucfgo-sMUrkgnukIVOp-10" target="gucfgo-sMUrkgnukIVOp-11" edge="1">
                    <mxGeometry relative="1" as="geometry">
                        <Array as="points">
                            <mxPoint x="340" y="535"/>
                            <mxPoint x="340" y="445"/>
                        </Array>
                    </mxGeometry>
                </mxCell>
                <mxCell id="gucfgo-sMUrkgnukIVOp-34" style="edgeStyle=none;html=1;entryX=0.5;entryY=0;entryDx=0;entryDy=0;exitX=0.5;exitY=1;exitDx=0;exitDy=0;" parent="1" source="gucfgo-sMUrkgnukIVOp-10" target="gucfgo-sMUrkgnukIVOp-19" edge="1">
                    <mxGeometry relative="1" as="geometry">
                        <mxPoint x="540" y="720" as="sourcePoint"/>
                        <Array as="points">
                            <mxPoint x="530" y="1110"/>
                            <mxPoint x="460" y="1110"/>
                        </Array>
                    </mxGeometry>
                </mxCell>
                <mxCell id="gucfgo-sMUrkgnukIVOp-35" style="edgeStyle=none;html=1;exitX=0.5;exitY=1;exitDx=0;exitDy=0;" parent="1" source="QkTSSyqkzoJ9B_Fw1d_s-2" edge="1">
                    <mxGeometry relative="1" as="geometry">
                        <mxPoint x="460" y="1172.13330078125" as="targetPoint"/>
                        <Array as="points">
                            <mxPoint x="220" y="650"/>
                            <mxPoint x="70" y="650"/>
                            <mxPoint x="70" y="1110"/>
                            <mxPoint x="460" y="1110"/>
                        </Array>
                        <mxPoint x="220.625" y="690" as="sourcePoint"/>
                    </mxGeometry>
                </mxCell>
                <mxCell id="gucfgo-sMUrkgnukIVOp-36" style="edgeStyle=none;html=1;exitX=0.5;exitY=1;exitDx=0;exitDy=0;entryX=0.5;entryY=0;entryDx=0;entryDy=0;" parent="1" source="gucfgo-sMUrkgnukIVOp-30" target="gucfgo-sMUrkgnukIVOp-9" edge="1">
                    <mxGeometry relative="1" as="geometry">
                        <mxPoint x="520" y="641.4666341145834" as="targetPoint"/>
                        <Array as="points">
                            <mxPoint x="270" y="930"/>
                            <mxPoint x="400" y="930"/>
                            <mxPoint x="400" y="360"/>
                            <mxPoint x="531" y="360"/>
                        </Array>
                    </mxGeometry>
                </mxCell>
                <mxCell id="gucfgo-sMUrkgnukIVOp-37" style="edgeStyle=none;html=1;exitX=0;exitY=0.5;exitDx=0;exitDy=0;entryX=0.5;entryY=0;entryDx=0;entryDy=0;" parent="1" source="gucfgo-sMUrkgnukIVOp-10" target="QkTSSyqkzoJ9B_Fw1d_s-2" edge="1">
                    <mxGeometry relative="1" as="geometry">
                        <mxPoint x="420" y="540" as="sourcePoint"/>
                        <Array as="points">
                            <mxPoint x="380" y="535"/>
                            <mxPoint x="220" y="535"/>
                        </Array>
                        <mxPoint x="220" y="570" as="targetPoint"/>
                    </mxGeometry>
                </mxCell>
                <mxCell id="gucfgo-sMUrkgnukIVOp-38" style="edgeStyle=none;html=1;entryX=0.5;entryY=0;entryDx=0;entryDy=0;exitX=0.5;exitY=1;exitDx=0;exitDy=0;" parent="1" source="gucfgo-sMUrkgnukIVOp-10" target="gucfgo-sMUrkgnukIVOp-27" edge="1">
                    <mxGeometry relative="1" as="geometry">
                        <Array as="points">
                            <mxPoint x="532" y="680"/>
                            <mxPoint x="740" y="680"/>
                        </Array>
                    </mxGeometry>
                </mxCell>
                <mxCell id="gucfgo-sMUrkgnukIVOp-39" style="edgeStyle=none;html=1;entryX=0.5;entryY=0;entryDx=0;entryDy=0;exitX=0.5;exitY=1;exitDx=0;exitDy=0;" parent="1" source="gucfgo-sMUrkgnukIVOp-28" target="gucfgo-sMUrkgnukIVOp-29" edge="1">
                    <mxGeometry relative="1" as="geometry">
                        <Array as="points">
                            <mxPoint x="740" y="970"/>
                            <mxPoint x="610" y="970"/>
                            <mxPoint x="610" y="800"/>
                            <mxPoint x="270" y="800"/>
                        </Array>
                    </mxGeometry>
                </mxCell>
                <mxCell id="gucfgo-sMUrkgnukIVOp-40" style="edgeStyle=none;html=1;entryX=0.5;entryY=0;entryDx=0;entryDy=0;exitX=0.5;exitY=1;exitDx=0;exitDy=0;" parent="1" source="QkTSSyqkzoJ9B_Fw1d_s-2" target="gucfgo-sMUrkgnukIVOp-29" edge="1">
                    <mxGeometry relative="1" as="geometry">
                        <Array as="points">
                            <mxPoint x="240" y="640"/>
                            <mxPoint x="270" y="640"/>
                        </Array>
                        <mxPoint x="220.625" y="690" as="sourcePoint"/>
                    </mxGeometry>
                </mxCell>
                <mxCell id="gucfgo-sMUrkgnukIVOp-41" value="Menu" style="whiteSpace=wrap;html=1;" parent="1" vertex="1">
                    <mxGeometry x="660" y="1320" width="120" height="60" as="geometry"/>
                </mxCell>
                <mxCell id="gucfgo-sMUrkgnukIVOp-42" value="NPC" style="whiteSpace=wrap;html=1;" parent="1" vertex="1">
                    <mxGeometry x="530" y="1320" width="120" height="60" as="geometry"/>
                </mxCell>
                <mxCell id="gucfgo-sMUrkgnukIVOp-43" value="*******" style="whiteSpace=wrap;html=1;" parent="1" vertex="1">
                    <mxGeometry x="790" y="1320" width="120" height="60" as="geometry"/>
                </mxCell>
                <mxCell id="gucfgo-sMUrkgnukIVOp-44" value="AnimationSequence" style="whiteSpace=wrap;html=1;" parent="1" vertex="1">
                    <mxGeometry x="400" y="1480" width="120" height="60" as="geometry"/>
                </mxCell>
                <mxCell id="gucfgo-sMUrkgnukIVOp-45" value="Inventory" style="swimlane;startSize=20;horizontal=1;containerType=tree;" parent="1" vertex="1">
                    <mxGeometry x="900" y="820" width="220" height="130" as="geometry"/>
                </mxCell>
                <mxCell id="gucfgo-sMUrkgnukIVOp-46" value="&lt;ul&gt;&lt;li&gt;addItem&lt;/li&gt;&lt;li&gt;removeItem&lt;/li&gt;&lt;li&gt;has_item&lt;/li&gt;&lt;/ul&gt;" style="text;strokeColor=none;fillColor=none;html=1;whiteSpace=wrap;verticalAlign=middle;overflow=hidden;" parent="gucfgo-sMUrkgnukIVOp-45" vertex="1">
                    <mxGeometry x="1.25" y="20" width="218.75" height="110" as="geometry"/>
                </mxCell>
                <mxCell id="gucfgo-sMUrkgnukIVOp-47" style="edgeStyle=none;html=1;entryX=0.5;entryY=0;entryDx=0;entryDy=0;" parent="1" target="gucfgo-sMUrkgnukIVOp-45" edge="1">
                    <mxGeometry relative="1" as="geometry">
                        <mxPoint x="850" y="795" as="sourcePoint"/>
                        <Array as="points">
                            <mxPoint x="1010" y="795"/>
                        </Array>
                    </mxGeometry>
                </mxCell>
                <mxCell id="gucfgo-sMUrkgnukIVOp-48" style="edgeStyle=none;html=1;entryX=0.5;entryY=1;entryDx=0;entryDy=0;exitX=0.5;exitY=1;exitDx=0;exitDy=0;" parent="1" source="QkTSSyqkzoJ9B_Fw1d_s-2" target="gucfgo-sMUrkgnukIVOp-11" edge="1">
                    <mxGeometry relative="1" as="geometry">
                        <Array as="points">
                            <mxPoint x="200" y="640"/>
                            <mxPoint x="70" y="640"/>
                            <mxPoint x="70" y="500"/>
                            <mxPoint x="250" y="500"/>
                        </Array>
                        <mxPoint x="220.625" y="690" as="sourcePoint"/>
                    </mxGeometry>
                </mxCell>
                <mxCell id="QkTSSyqkzoJ9B_Fw1d_s-2" value="NPC" style="whiteSpace=wrap;html=1;" parent="1" vertex="1">
                    <mxGeometry x="160" y="560" width="120" height="60" as="geometry"/>
                </mxCell>
                <mxCell id="QkTSSyqkzoJ9B_Fw1d_s-4" style="edgeStyle=none;html=1;exitX=0.5;exitY=1;exitDx=0;exitDy=0;" parent="1" source="gucfgo-sMUrkgnukIVOp-46" edge="1">
                    <mxGeometry relative="1" as="geometry">
                        <mxPoint x="460" y="1170" as="targetPoint"/>
                        <Array as="points">
                            <mxPoint x="1011" y="1120"/>
                            <mxPoint x="460" y="1120"/>
                        </Array>
                    </mxGeometry>
                </mxCell>
            </root>
        </mxGraphModel>
    </diagram>
</mxfile>